<svg width="28" height="27" viewBox="0 0 28 27" fill="none" xmlns="http://www.w3.org/2000/svg">
<path d="M24.6457 17.7309L17.6638 5.16365C16.7256 3.47274 15.4275 2.54547 13.9984 2.54547C12.5693 2.54547 11.2711 3.47274 10.3329 5.16365L3.3511 17.7309C2.46747 19.3346 2.36929 20.8727 3.07838 22.0837C3.78747 23.2946 5.18383 23.96 7.01656 23.96H20.9802C22.8129 23.96 24.2093 23.2946 24.9184 22.0837C25.6275 20.8727 25.5293 19.3237 24.6457 17.7309ZM13.1802 10.1818C13.1802 9.73456 13.5511 9.36365 13.9984 9.36365C14.4457 9.36365 14.8166 9.73456 14.8166 10.1818V15.6364C14.8166 16.0837 14.4457 16.4546 13.9984 16.4546C13.5511 16.4546 13.1802 16.0837 13.1802 15.6364V10.1818ZM14.7729 19.6837C14.7184 19.7273 14.6638 19.7709 14.6093 19.8146C14.5438 19.8582 14.4784 19.8909 14.4129 19.9127C14.3475 19.9455 14.282 19.9673 14.2056 19.9782C14.1402 19.9891 14.0638 20 13.9984 20C13.9329 20 13.8566 19.9891 13.7802 19.9782C13.7147 19.9673 13.6493 19.9455 13.5838 19.9127C13.5184 19.8909 13.4529 19.8582 13.3875 19.8146C13.3329 19.7709 13.2784 19.7273 13.2238 19.6837C13.0275 19.4764 12.9075 19.1927 12.9075 18.9091C12.9075 18.6255 13.0275 18.3418 13.2238 18.1346C13.2784 18.0909 13.3329 18.0473 13.3875 18.0037C13.4529 17.96 13.5184 17.9273 13.5838 17.9055C13.6493 17.8727 13.7147 17.8509 13.7802 17.84C13.922 17.8073 14.0747 17.8073 14.2056 17.84C14.282 17.8509 14.3475 17.8727 14.4129 17.9055C14.4784 17.9273 14.5438 17.96 14.6093 18.0037C14.6638 18.0473 14.7184 18.0909 14.7729 18.1346C14.9693 18.3418 15.0893 18.6255 15.0893 18.9091C15.0893 19.1927 14.9693 19.4764 14.7729 19.6837Z" fill="#D64F4F"/>
</svg>
