<svg width="28" height="27" viewBox="0 0 28 27" fill="none" xmlns="http://www.w3.org/2000/svg">
<path d="M13.9989 2.54547C7.98803 2.54547 3.08984 7.44365 3.08984 13.4546C3.08984 19.4655 7.98803 24.3637 13.9989 24.3637C20.0098 24.3637 24.908 19.4655 24.908 13.4546C24.908 7.44365 20.0098 2.54547 13.9989 2.54547ZM19.2135 10.9455L13.028 17.1309C12.8753 17.2837 12.668 17.3709 12.4498 17.3709C12.2317 17.3709 12.0244 17.2837 11.8717 17.1309L8.78439 14.0437C8.46803 13.7273 8.46803 13.2037 8.78439 12.8873C9.10075 12.5709 9.62439 12.5709 9.94075 12.8873L12.4498 15.3964L18.0571 9.78911C18.3735 9.47274 18.8971 9.47274 19.2135 9.78911C19.5298 10.1055 19.5298 10.6182 19.2135 10.9455Z" fill="#3BB774"/>
</svg>
